<?xml version="1.0" encoding="utf-8"?>
<!-- Generator: Adobe Illustrator 19.1.0, SVG Export Plug-In . SVG Version: 6.00 Build 0)  -->
<svg version="1.1" id="Layer_1" xmlns="http://www.w3.org/2000/svg" xmlns:xlink="http://www.w3.org/1999/xlink" x="0px" y="0px"
	 viewBox="0 0 612 792" style="enable-background:new 0 0 612 792;" xml:space="preserve">
<style type="text/css">
	.st0{opacity:0.97;clip-path:url(#SVGID_2_);fill:#B3392C;}
	.st1{opacity:0.97;clip-path:url(#SVGID_2_);fill:#C74033;}
	.st2{opacity:0.97;clip-path:url(#SVGID_2_);fill:#B2382C;}
	.st3{opacity:0.97;clip-path:url(#SVGID_2_);fill:#D7463D;}
	.st4{opacity:0.97;clip-path:url(#SVGID_2_);fill:#DA3D38;}
	.st5{opacity:0.97;clip-path:url(#SVGID_2_);fill:#EF4E3E;}
	.st6{opacity:0.97;clip-path:url(#SVGID_2_);fill:#D13E2F;}
	.st7{opacity:0.97;clip-path:url(#SVGID_2_);fill:#982E21;}
	.st8{opacity:0.97;clip-path:url(#SVGID_2_);fill:#87261A;}
	.st9{opacity:0.97;clip-path:url(#SVGID_2_);fill:#BE3F33;}
	.st10{opacity:0.97;clip-path:url(#SVGID_2_);fill:#D34437;}
	.st11{opacity:0.97;clip-path:url(#SVGID_2_);fill:#EC4D3E;}
	.st12{opacity:0.97;clip-path:url(#SVGID_2_);fill:#E64E40;}
	.st13{opacity:0.97;clip-path:url(#SVGID_2_);fill:#AE372F;}
	.st14{opacity:0.97;clip-path:url(#SVGID_2_);fill:#8B201A;}
	.st15{opacity:0.97;clip-path:url(#SVGID_2_);fill:#C43F32;}
	.st16{opacity:0.97;clip-path:url(#SVGID_2_);fill:#89271B;}
	.st17{opacity:0.97;clip-path:url(#SVGID_2_);fill:#CE4335;}
	.st18{opacity:0.97;clip-path:url(#SVGID_2_);fill:#E44A3C;}
	.st19{opacity:0.97;clip-path:url(#SVGID_2_);fill:#B9302D;}
	.st20{opacity:0.97;clip-path:url(#SVGID_2_);fill:#B63A2D;}
	.st21{opacity:0.97;clip-path:url(#SVGID_2_);fill:#DD4839;}
	.st22{opacity:0.97;clip-path:url(#SVGID_2_);fill:#E44E40;}
	.st23{opacity:0.97;clip-path:url(#SVGID_2_);fill:#AE372A;}
	.st24{opacity:0.97;clip-path:url(#SVGID_2_);fill:#C73732;}
	.st25{opacity:0.97;clip-path:url(#SVGID_2_);fill:#AC3629;}
	.st26{opacity:0.97;clip-path:url(#SVGID_2_);fill:#BD3D30;}
	.st27{fill:#FFFFFF;}
	.st28{clip-path:url(#SVGID_4_);}
	.st29{opacity:0.97;clip-path:url(#SVGID_6_);fill:#B3392C;}
	.st30{opacity:0.97;clip-path:url(#SVGID_6_);fill:#C74033;}
	.st31{opacity:0.97;clip-path:url(#SVGID_6_);fill:#B2382C;}
	.st32{opacity:0.97;clip-path:url(#SVGID_6_);fill:#D7463D;}
	.st33{opacity:0.97;clip-path:url(#SVGID_6_);fill:#DA3D38;}
	.st34{opacity:0.97;clip-path:url(#SVGID_6_);fill:#EF4E3E;}
	.st35{opacity:0.97;clip-path:url(#SVGID_6_);fill:#D13E2F;}
	.st36{opacity:0.97;clip-path:url(#SVGID_6_);fill:#982E21;}
	.st37{opacity:0.97;clip-path:url(#SVGID_6_);fill:#87261A;}
	.st38{opacity:0.97;clip-path:url(#SVGID_6_);fill:#BE3F33;}
	.st39{opacity:0.97;clip-path:url(#SVGID_6_);fill:#D34437;}
	.st40{opacity:0.97;clip-path:url(#SVGID_6_);fill:#EC4D3E;}
	.st41{opacity:0.97;clip-path:url(#SVGID_6_);fill:#E64E40;}
	.st42{opacity:0.97;clip-path:url(#SVGID_6_);fill:#AE372F;}
	.st43{opacity:0.97;clip-path:url(#SVGID_6_);fill:#8B201A;}
	.st44{opacity:0.97;clip-path:url(#SVGID_6_);fill:#C43F32;}
	.st45{opacity:0.97;clip-path:url(#SVGID_6_);fill:#89271B;}
	.st46{opacity:0.97;clip-path:url(#SVGID_6_);fill:#CE4335;}
	.st47{opacity:0.97;clip-path:url(#SVGID_6_);fill:#E44A3C;}
	.st48{opacity:0.97;clip-path:url(#SVGID_6_);fill:#B9302D;}
	.st49{opacity:0.97;clip-path:url(#SVGID_6_);fill:#B63A2D;}
	.st50{opacity:0.97;clip-path:url(#SVGID_6_);fill:#DD4839;}
	.st51{opacity:0.97;clip-path:url(#SVGID_6_);fill:#E44E40;}
	.st52{opacity:0.97;clip-path:url(#SVGID_6_);fill:#AE372A;}
	.st53{opacity:0.97;clip-path:url(#SVGID_6_);fill:#C73732;}
	.st54{opacity:0.97;clip-path:url(#SVGID_6_);fill:#AC3629;}
	.st55{opacity:0.97;clip-path:url(#SVGID_6_);fill:#BD3D30;}
	.st56{fill:none;}
	.st57{fill:#824B4B;}
	.st58{opacity:0.97;clip-path:url(#SVGID_8_);fill:#B3392C;}
	.st59{opacity:0.97;clip-path:url(#SVGID_8_);fill:#C74033;}
	.st60{opacity:0.97;clip-path:url(#SVGID_8_);fill:#B2382C;}
	.st61{opacity:0.97;clip-path:url(#SVGID_8_);fill:#D7463D;}
	.st62{opacity:0.97;clip-path:url(#SVGID_8_);fill:#DA3D38;}
	.st63{opacity:0.97;clip-path:url(#SVGID_8_);fill:#EF4E3E;}
	.st64{opacity:0.97;clip-path:url(#SVGID_8_);fill:#711D11;}
	.st65{opacity:0.97;clip-path:url(#SVGID_8_);fill:#982E21;}
	.st66{opacity:0.97;clip-path:url(#SVGID_8_);fill:#87261A;}
	.st67{opacity:0.97;clip-path:url(#SVGID_8_);fill:#BE3F33;}
	.st68{opacity:0.97;clip-path:url(#SVGID_8_);fill:#D34437;}
	.st69{opacity:0.97;clip-path:url(#SVGID_8_);fill:#EC4D3E;}
	.st70{opacity:0.97;clip-path:url(#SVGID_8_);fill:#E64E40;}
	.st71{opacity:0.97;clip-path:url(#SVGID_8_);fill:#AE372F;}
	.st72{opacity:0.97;clip-path:url(#SVGID_8_);fill:#8B201A;}
	.st73{opacity:0.97;clip-path:url(#SVGID_8_);fill:#C43F32;}
	.st74{opacity:0.97;clip-path:url(#SVGID_8_);fill:#89271B;}
	.st75{opacity:0.97;clip-path:url(#SVGID_8_);fill:#CE4335;}
	.st76{opacity:0.97;clip-path:url(#SVGID_8_);fill:#E44A3C;}
	.st77{opacity:0.97;clip-path:url(#SVGID_8_);fill:#B9302D;}
	.st78{opacity:0.97;clip-path:url(#SVGID_8_);fill:#B63A2D;}
	.st79{opacity:0.97;clip-path:url(#SVGID_8_);fill:#DD4839;}
	.st80{opacity:0.97;clip-path:url(#SVGID_8_);fill:#E44E40;}
	.st81{opacity:0.97;clip-path:url(#SVGID_8_);fill:#AE372A;}
	.st82{opacity:0.97;clip-path:url(#SVGID_8_);fill:#C73732;}
	.st83{opacity:0.97;clip-path:url(#SVGID_8_);fill:#AC3629;}
	.st84{opacity:0.97;clip-path:url(#SVGID_8_);fill:#BD3D30;}
	.st85{clip-path:url(#SVGID_10_);}
	.st86{opacity:0.97;clip-path:url(#SVGID_12_);fill:#B3392C;}
	.st87{opacity:0.97;clip-path:url(#SVGID_12_);fill:#C74033;}
	.st88{opacity:0.97;clip-path:url(#SVGID_12_);fill:#B2382C;}
	.st89{opacity:0.97;clip-path:url(#SVGID_12_);fill:#D7463D;}
	.st90{opacity:0.97;clip-path:url(#SVGID_12_);fill:#DA3D38;}
	.st91{opacity:0.97;clip-path:url(#SVGID_12_);fill:#EF4E3E;}
	.st92{opacity:0.97;clip-path:url(#SVGID_12_);fill:#D13E2F;}
	.st93{opacity:0.97;clip-path:url(#SVGID_12_);fill:#982E21;}
	.st94{opacity:0.97;clip-path:url(#SVGID_12_);fill:#87261A;}
	.st95{opacity:0.97;clip-path:url(#SVGID_12_);fill:#BE3F33;}
	.st96{opacity:0.97;clip-path:url(#SVGID_12_);fill:#D34437;}
	.st97{opacity:0.97;clip-path:url(#SVGID_12_);fill:#EC4D3E;}
	.st98{opacity:0.97;clip-path:url(#SVGID_12_);fill:#E64E40;}
	.st99{opacity:0.97;clip-path:url(#SVGID_12_);fill:#AE372F;}
	.st100{opacity:0.97;clip-path:url(#SVGID_12_);fill:#8B201A;}
	.st101{opacity:0.97;clip-path:url(#SVGID_12_);fill:#C43F32;}
	.st102{opacity:0.97;clip-path:url(#SVGID_12_);fill:#89271B;}
	.st103{opacity:0.97;clip-path:url(#SVGID_12_);fill:#CE4335;}
	.st104{opacity:0.97;clip-path:url(#SVGID_12_);fill:#E44A3C;}
	.st105{opacity:0.97;clip-path:url(#SVGID_12_);fill:#B9302D;}
	.st106{opacity:0.97;clip-path:url(#SVGID_12_);fill:#B63A2D;}
	.st107{opacity:0.97;clip-path:url(#SVGID_12_);fill:#DD4839;}
	.st108{opacity:0.97;clip-path:url(#SVGID_12_);fill:#E44E40;}
	.st109{opacity:0.97;clip-path:url(#SVGID_12_);fill:#AE372A;}
	.st110{opacity:0.97;clip-path:url(#SVGID_12_);fill:#C73732;}
	.st111{opacity:0.97;clip-path:url(#SVGID_12_);fill:#AC3629;}
	.st112{opacity:0.97;clip-path:url(#SVGID_12_);fill:#BD3D30;}
</style>
<g>
	<path class="st27" d="M305.8,611.7c-123.2-0.3-221.7-99.9-221.6-222c0.1-122.3,99.5-221.5,221.9-221.5
		c122.4,0.1,221.9,99.6,221.6,222.1C527.4,513.9,427.6,611.7,305.8,611.7z M210.3,388.4c2.3,10.2,4.4,20.2,6.8,30.4
		c1.7-0.2,3.1-0.3,4.5-0.4c16.4-2,29.4-9.5,38.2-23.8c6-9.7,8.1-20.3,6.9-31.5c-0.5-4.3,0.5-8.1,2.9-11.5c4.8-6.8,15.4-6.3,19.7,0.8
		c1.2,2,1.5,4.2,1.5,6.4c0,12.2,0,24.3,0,36.5c0,1.7,0.5,3,1.7,4.2c9.8,9.8,19.6,19.5,29.4,29.3c0.4,0.4,0.9,0.8,1.7,1.4
		c0.1-1.1,0.1-1.9,0.1-2.7c0-4.7-0.1-9.4-0.2-14.2c0-9.5,0-19,0-28.6c0-9-0.2-18.1-0.2-27.1c0-0.9,0-2,0.5-2.7
		c4.2-5.7,9.2-9.7,17-9.3c8.1,0.5,14.8,3.1,19.5,9.9c1,1.5,1.6,3,1.6,4.9c-0.1,10,0,20,0,30c0,24.5,0,49,0,73.4
		c0,1.3,0.2,2.4,1.2,3.4c9.9,9.9,19.8,19.8,29.7,29.7c0.5,0.5,1,0.9,2,1.8c0-1.5,0-2.4,0-3.3c-0.1-25.8-0.1-51.7-0.2-77.5
		c0-16.6,0-33.3,0-49.9c0-2.7,0.6-5.2,1.7-7.6c5.7-11.9,21.1-16,32.1-8.5c8.6,5.9,11.6,16.6,7.3,25.8c-4,8.7-13.5,13.6-23.4,12
		c-0.7-0.1-1.5-0.2-2.4-0.3c2.3,10.3,4.5,20.2,6.7,30.3c1.3,0,2.4,0.1,3.4,0c2.7-0.4,5.4-0.7,8-1.3c10.5-2.4,19.5-7.7,26.5-15.8
		c10.6-12.1,14.7-26.1,12.1-42c-1.7-10.3-6.4-19.2-13.7-26.7c-9.2-9.3-20.4-14.4-33.4-15.4c-7.9-0.6-15.6,0.6-23,3.7
		c-0.5,0.2-1,0.2-1.7,0.4c-0.1-6.3,0-12.4-0.1-19c-1.4,0.7-2.3,1.1-3.2,1.6c-8.9,4.8-17.9,9.7-26.8,14.5c-1.6,0.8-3.3,1.4-3.2,3.9
		c-8.7-5.6-17.9-8.1-28-7.2c-10.1,0.9-18.6,5.2-25.9,12.1c-11.8-10.3-25.2-13.3-40.3-9.7c0-1-0.1-1.7-0.1-2.5c0-5,0-10.1,0-15.1
		c0-0.7-0.1-1.5-0.2-2.5c-1.1,0.6-1.9,1-2.7,1.4c-9,4.8-18,9.8-27,14.5c-2.1,1.1-3.6,2.3-3.1,4.9c0,0.2-0.1,0.4-0.3,0.9
		c-13.1-4.5-26-4-39,1.5c0-5.8,0-11.2,0-17.1c-11.1,6-21.8,11.8-32.5,17.5c0,0.9,0,1.6,0,2.3c0,46.9,0,93.8,0,140.6
		c0,1.6,0.5,2.7,1.6,3.7c9,9,18,18,27,27c1.2,1.2,2.3,2.3,3.5,3.4c0.2-0.1,0.3-0.1,0.5-0.2c0-0.9,0-1.8,0-2.7c0-43.1,0-86.2,0-129.4
		c0-4.4,1.4-8.2,4-11.6c6.6-8.7,18.7-11.1,28.4-5.7c7.3,4.1,11.7,12.2,10.4,21c-1.5,10.5-10.5,17.8-20.8,18.1
		C215,389,212.8,388.6,210.3,388.4z"/>
</g>
</svg>
